<svg id="Layer_1" data-name="Layer 1" xmlns="http://www.w3.org/2000/svg" width="67" height="67" viewBox="0 0 67 67"><defs><style>.cls-1{fill:#fff;}</style></defs><title>Artboard 1</title><path class="cls-1" d="M50.84,48.14V36.42c0-6.27-3.35-9.19-7.82-9.19A6.74,6.74,0,0,0,36.9,30.6V27.71H30.11c.09,1.92,0,20.43,0,20.43H36.9V36.73a4.63,4.63,0,0,1,.22-1.65,3.71,3.71,0,0,1,3.48-2.48c2.46,0,3.44,1.87,3.44,4.62V48.14h6.79ZM23,24.92a3.54,3.54,0,1,0,0-7.06,3.54,3.54,0,1,0-.09,7.06ZM34,64A30,30,0,1,1,64,34,30,30,0,0,1,34,64ZM26.35,48.14V27.71H19.57V48.14Z"/></svg>